<?xml version="1.0" encoding="UTF-8"?>
<!DOCTYPE svg PUBLIC "-//W3C//DTD SVG 1.1//EN" "http://www.w3.org/Graphics/SVG/1.1/DTD/svg11.dtd">
<svg width="161mm" height="122mm" viewBox="0 0 16100 12200" version="1.1" baseProfile="tiny" xmlns="http://www.w3.org/2000/svg" stroke-width="28.222" stroke-linejoin="round" xml:space="preserve">
 <path fill="rgb(255,255,255)" stroke="none" d="M 8025,12173 L 0,12173 0,-1 16050,-1 16050,12173 8025,12173 Z"/>
 <path fill="none" stroke="rgb(179,179,179)" stroke-linejoin="round" d="M 9106,9957 L 2484,9957 2484,2209 15729,2209 15729,9957 9106,9957 Z"/>
 <path fill="none" stroke="rgb(179,179,179)" stroke-linejoin="round" d="M 2484,2208 L 2484,9956"/>
 <path fill="none" stroke="rgb(179,179,179)" stroke-linejoin="round" d="M 8570,2208 L 8570,9956"/>
 <path fill="none" stroke="rgb(179,179,179)" stroke-linejoin="round" d="M 14657,2208 L 14657,9956"/>
 <path fill="none" stroke="rgb(179,179,179)" stroke-linejoin="round" d="M 4316,2208 L 4316,9956"/>
 <path fill="none" stroke="rgb(179,179,179)" stroke-linejoin="round" d="M 5388,2208 L 5388,9956"/>
 <path fill="none" stroke="rgb(179,179,179)" stroke-linejoin="round" d="M 6148,2208 L 6148,9956"/>
 <path fill="none" stroke="rgb(179,179,179)" stroke-linejoin="round" d="M 6738,2208 L 6738,9956"/>
 <path fill="none" stroke="rgb(179,179,179)" stroke-linejoin="round" d="M 7220,2208 L 7220,9956"/>
 <path fill="none" stroke="rgb(179,179,179)" stroke-linejoin="round" d="M 7628,2208 L 7628,9956"/>
 <path fill="none" stroke="rgb(179,179,179)" stroke-linejoin="round" d="M 7981,2208 L 7981,9956"/>
 <path fill="none" stroke="rgb(179,179,179)" stroke-linejoin="round" d="M 8291,2208 L 8291,9956"/>
 <path fill="none" stroke="rgb(179,179,179)" stroke-linejoin="round" d="M 10402,2208 L 10402,9956"/>
 <path fill="none" stroke="rgb(179,179,179)" stroke-linejoin="round" d="M 11474,2208 L 11474,9956"/>
 <path fill="none" stroke="rgb(179,179,179)" stroke-linejoin="round" d="M 12234,2208 L 12234,9956"/>
 <path fill="none" stroke="rgb(179,179,179)" stroke-linejoin="round" d="M 12824,2208 L 12824,9956"/>
 <path fill="none" stroke="rgb(179,179,179)" stroke-linejoin="round" d="M 13306,2208 L 13306,9956"/>
 <path fill="none" stroke="rgb(179,179,179)" stroke-linejoin="round" d="M 13714,2208 L 13714,9956"/>
 <path fill="none" stroke="rgb(179,179,179)" stroke-linejoin="round" d="M 14067,2208 L 14067,9956"/>
 <path fill="none" stroke="rgb(179,179,179)" stroke-linejoin="round" d="M 14378,2208 L 14378,9956"/>
 <path fill="none" stroke="rgb(179,179,179)" stroke-linejoin="round" d="M 15729,9956 L 2484,9956"/>
 <path fill="none" stroke="rgb(179,179,179)" stroke-linejoin="round" d="M 15729,6619 L 2484,6619"/>
 <path fill="none" stroke="rgb(179,179,179)" stroke-linejoin="round" d="M 15729,3283 L 2484,3283"/>
 <path fill="none" stroke="rgb(179,179,179)" stroke-linejoin="round" d="M 15729,8951 L 2484,8951"/>
 <path fill="none" stroke="rgb(179,179,179)" stroke-linejoin="round" d="M 15729,8363 L 2484,8363"/>
 <path fill="none" stroke="rgb(179,179,179)" stroke-linejoin="round" d="M 15729,7946 L 2484,7946"/>
 <path fill="none" stroke="rgb(179,179,179)" stroke-linejoin="round" d="M 15729,7623 L 2484,7623"/>
 <path fill="none" stroke="rgb(179,179,179)" stroke-linejoin="round" d="M 15729,7359 L 2484,7359"/>
 <path fill="none" stroke="rgb(179,179,179)" stroke-linejoin="round" d="M 15729,7135 L 2484,7135"/>
 <path fill="none" stroke="rgb(179,179,179)" stroke-linejoin="round" d="M 15729,6942 L 2484,6942"/>
 <path fill="none" stroke="rgb(179,179,179)" stroke-linejoin="round" d="M 15729,6771 L 2484,6771"/>
 <path fill="none" stroke="rgb(179,179,179)" stroke-linejoin="round" d="M 15729,5615 L 2484,5615"/>
 <path fill="none" stroke="rgb(179,179,179)" stroke-linejoin="round" d="M 15729,5028 L 2484,5028"/>
 <path fill="none" stroke="rgb(179,179,179)" stroke-linejoin="round" d="M 15729,4611 L 2484,4611"/>
 <path fill="none" stroke="rgb(179,179,179)" stroke-linejoin="round" d="M 15729,4287 L 2484,4287"/>
 <path fill="none" stroke="rgb(179,179,179)" stroke-linejoin="round" d="M 15729,4023 L 2484,4023"/>
 <path fill="none" stroke="rgb(179,179,179)" stroke-linejoin="round" d="M 15729,3800 L 2484,3800"/>
 <path fill="none" stroke="rgb(179,179,179)" stroke-linejoin="round" d="M 15729,3606 L 2484,3606"/>
 <path fill="none" stroke="rgb(179,179,179)" stroke-linejoin="round" d="M 15729,3435 L 2484,3435"/>
 <path fill="none" stroke="rgb(179,179,179)" stroke-linejoin="round" d="M 15729,2278 L 2484,2278"/>
 <path fill="none" stroke="rgb(179,179,179)" stroke-linejoin="round" d="M 2484,10106 L 2484,9956"/>
 <path fill="none" stroke="rgb(179,179,179)" stroke-linejoin="round" d="M 2484,10106 L 2484,9956"/>
 <path fill="none" stroke="rgb(179,179,179)" stroke-linejoin="round" d="M 8570,10106 L 8570,9956"/>
 <path fill="none" stroke="rgb(179,179,179)" stroke-linejoin="round" d="M 8570,10106 L 8570,9956"/>
 <path fill="none" stroke="rgb(179,179,179)" stroke-linejoin="round" d="M 14657,10106 L 14657,9956"/>
 <path fill="none" stroke="rgb(179,179,179)" stroke-linejoin="round" d="M 14657,10106 L 14657,9956"/>
 <path fill="none" stroke="rgb(179,179,179)" stroke-linejoin="round" d="M 2484,9956 L 15729,9956"/>
 <path fill="none" stroke="rgb(179,179,179)" stroke-linejoin="round" d="M 2334,9956 L 2484,9956"/>
 <path fill="none" stroke="rgb(179,179,179)" stroke-linejoin="round" d="M 2334,9956 L 2484,9956"/>
 <path fill="none" stroke="rgb(179,179,179)" stroke-linejoin="round" d="M 2334,6619 L 2484,6619"/>
 <path fill="none" stroke="rgb(179,179,179)" stroke-linejoin="round" d="M 2334,6619 L 2484,6619"/>
 <path fill="none" stroke="rgb(179,179,179)" stroke-linejoin="round" d="M 2334,3283 L 2484,3283"/>
 <path fill="none" stroke="rgb(179,179,179)" stroke-linejoin="round" d="M 2334,3283 L 2484,3283"/>
 <path fill="none" stroke="rgb(179,179,179)" stroke-linejoin="round" d="M 2484,9956 L 2484,2208"/>
 <path fill="none" stroke="rgb(255,66,14)" stroke-width="80" stroke-linejoin="round" d="M 2484,9956 L 4316,8951 6148,7946 7220,7359 7981,6942 6148,7946 7981,6942 9812,5938 10884,5351 11644,4934 7981,6942 9812,5938 11644,4934 12716,4346 13477,3929 9052,6354 10884,5351 12716,4346 13788,3759 14549,3342 9812,5938 11644,4934 13477,3929 14549,3342 15309,2925"/>
 <path fill="rgb(0,69,134)" stroke="none" d="M 2359,9831 L 2359,10081 2609,10081 2609,9831 2359,9831 Z"/>
 <path fill="none" stroke="rgb(0,69,134)" stroke-linejoin="round" d="M 2359,9831 L 2359,10081 2609,10081 2609,9831 2359,9831 Z"/>
 <path fill="rgb(0,69,134)" stroke="none" d="M 4191,9378 L 4191,9628 4441,9628 4441,9378 4191,9378 Z"/>
 <path fill="none" stroke="rgb(0,69,134)" stroke-linejoin="round" d="M 4191,9378 L 4191,9628 4441,9628 4441,9378 4191,9378 Z"/>
 <path fill="rgb(0,69,134)" stroke="none" d="M 6023,9308 L 6023,9558 6273,9558 6273,9308 6023,9308 Z"/>
 <path fill="none" stroke="rgb(0,69,134)" stroke-linejoin="round" d="M 6023,9308 L 6023,9558 6273,9558 6273,9308 6023,9308 Z"/>
 <path fill="rgb(0,69,134)" stroke="none" d="M 7095,9265 L 7095,9515 7345,9515 7345,9265 7095,9265 Z"/>
 <path fill="none" stroke="rgb(0,69,134)" stroke-linejoin="round" d="M 7095,9265 L 7095,9515 7345,9515 7345,9265 7095,9265 Z"/>
 <path fill="rgb(0,69,134)" stroke="none" d="M 7856,9254 L 7856,9504 8105,9504 8105,9254 7856,9254 Z"/>
 <path fill="none" stroke="rgb(0,69,134)" stroke-linejoin="round" d="M 7856,9254 L 7856,9504 8105,9504 8105,9254 7856,9254 Z"/>
 <path fill="rgb(0,69,134)" stroke="none" d="M 6023,7925 L 6023,8175 6273,8175 6273,7925 6023,7925 Z"/>
 <path fill="none" stroke="rgb(0,69,134)" stroke-linejoin="round" d="M 6023,7925 L 6023,8175 6273,8175 6273,7925 6023,7925 Z"/>
 <path fill="rgb(0,69,134)" stroke="none" d="M 7856,7583 L 7856,7833 8105,7833 8105,7583 7856,7583 Z"/>
 <path fill="none" stroke="rgb(0,69,134)" stroke-linejoin="round" d="M 7856,7583 L 7856,7833 8105,7833 8105,7583 7856,7583 Z"/>
 <path fill="rgb(0,69,134)" stroke="none" d="M 9687,7557 L 9687,7807 9937,7807 9937,7557 9687,7557 Z"/>
 <path fill="none" stroke="rgb(0,69,134)" stroke-linejoin="round" d="M 9687,7557 L 9687,7807 9937,7807 9937,7557 9687,7557 Z"/>
 <path fill="rgb(0,69,134)" stroke="none" d="M 10759,7280 L 10759,7530 11009,7530 11009,7280 10759,7280 Z"/>
 <path fill="none" stroke="rgb(0,69,134)" stroke-linejoin="round" d="M 10759,7280 L 10759,7530 11009,7530 11009,7280 10759,7280 Z"/>
 <path fill="rgb(0,69,134)" stroke="none" d="M 11519,7269 L 11519,7519 11769,7519 11769,7269 11519,7269 Z"/>
 <path fill="none" stroke="rgb(0,69,134)" stroke-linejoin="round" d="M 11519,7269 L 11519,7519 11769,7519 11769,7269 11519,7269 Z"/>
 <path fill="rgb(0,69,134)" stroke="none" d="M 7856,6850 L 7856,7100 8105,7100 8105,6850 7856,6850 Z"/>
 <path fill="none" stroke="rgb(0,69,134)" stroke-linejoin="round" d="M 7856,6850 L 7856,7100 8105,7100 8105,6850 7856,6850 Z"/>
 <path fill="rgb(0,69,134)" stroke="none" d="M 9687,6380 L 9687,6630 9937,6630 9937,6380 9687,6380 Z"/>
 <path fill="none" stroke="rgb(0,69,134)" stroke-linejoin="round" d="M 9687,6380 L 9687,6630 9937,6630 9937,6380 9687,6380 Z"/>
 <path fill="rgb(0,69,134)" stroke="none" d="M 11519,6386 L 11519,6636 11769,6636 11769,6386 11519,6386 Z"/>
 <path fill="none" stroke="rgb(0,69,134)" stroke-linejoin="round" d="M 11519,6386 L 11519,6636 11769,6636 11769,6386 11519,6386 Z"/>
 <path fill="rgb(0,69,134)" stroke="none" d="M 12591,5524 L 12591,5774 12841,5774 12841,5524 12591,5524 Z"/>
 <path fill="none" stroke="rgb(0,69,134)" stroke-linejoin="round" d="M 12591,5524 L 12591,5774 12841,5774 12841,5524 12591,5524 Z"/>
 <path fill="rgb(0,69,134)" stroke="none" d="M 13352,5415 L 13352,5665 13602,5665 13602,5415 13352,5415 Z"/>
 <path fill="none" stroke="rgb(0,69,134)" stroke-linejoin="round" d="M 13352,5415 L 13352,5665 13602,5665 13602,5415 13352,5415 Z"/>
 <path fill="rgb(0,69,134)" stroke="none" d="M 8927,6117 L 8927,6367 9177,6367 9177,6117 8927,6117 Z"/>
 <path fill="none" stroke="rgb(0,69,134)" stroke-linejoin="round" d="M 8927,6117 L 8927,6367 9177,6367 9177,6117 8927,6117 Z"/>
 <path fill="rgb(0,69,134)" stroke="none" d="M 10759,5395 L 10759,5645 11009,5645 11009,5395 10759,5395 Z"/>
 <path fill="none" stroke="rgb(0,69,134)" stroke-linejoin="round" d="M 10759,5395 L 10759,5645 11009,5645 11009,5395 10759,5395 Z"/>
 <path fill="rgb(0,69,134)" stroke="none" d="M 12591,5452 L 12591,5702 12841,5702 12841,5452 12591,5452 Z"/>
 <path fill="none" stroke="rgb(0,69,134)" stroke-linejoin="round" d="M 12591,5452 L 12591,5702 12841,5702 12841,5452 12591,5452 Z"/>
 <path fill="rgb(0,69,134)" stroke="none" d="M 13663,3926 L 13663,4176 13913,4176 13913,3926 13663,3926 Z"/>
 <path fill="none" stroke="rgb(0,69,134)" stroke-linejoin="round" d="M 13663,3926 L 13663,4176 13913,4176 13913,3926 13663,3926 Z"/>
 <path fill="rgb(0,69,134)" stroke="none" d="M 14424,3449 L 14424,3699 14674,3699 14674,3449 14424,3449 Z"/>
 <path fill="none" stroke="rgb(0,69,134)" stroke-linejoin="round" d="M 14424,3449 L 14424,3699 14674,3699 14674,3449 14424,3449 Z"/>
 <path fill="rgb(0,69,134)" stroke="none" d="M 9687,5610 L 9687,5860 9937,5860 9937,5610 9687,5610 Z"/>
 <path fill="none" stroke="rgb(0,69,134)" stroke-linejoin="round" d="M 9687,5610 L 9687,5860 9937,5860 9937,5610 9687,5610 Z"/>
 <path fill="rgb(0,69,134)" stroke="none" d="M 11519,4441 L 11519,4691 11769,4691 11769,4441 11519,4441 Z"/>
 <path fill="none" stroke="rgb(0,69,134)" stroke-linejoin="round" d="M 11519,4441 L 11519,4691 11769,4691 11769,4441 11519,4441 Z"/>
 <path fill="rgb(0,69,134)" stroke="none" d="M 13352,4514 L 13352,4764 13602,4764 13602,4514 13352,4514 Z"/>
 <path fill="none" stroke="rgb(0,69,134)" stroke-linejoin="round" d="M 13352,4514 L 13352,4764 13602,4764 13602,4514 13352,4514 Z"/>
 <path fill="rgb(0,69,134)" stroke="none" d="M 14424,2733 L 14424,2983 14674,2983 14674,2733 14424,2733 Z"/>
 <path fill="none" stroke="rgb(0,69,134)" stroke-linejoin="round" d="M 14424,2733 L 14424,2983 14674,2983 14674,2733 14424,2733 Z"/>
 <path fill="rgb(0,69,134)" stroke="none" d="M 15184,2146 L 15184,2396 15434,2396 15434,2146 15184,2146 Z"/>
 <path fill="none" stroke="rgb(0,69,134)" stroke-linejoin="round" d="M 15184,2146 L 15184,2396 15434,2396 15434,2146 15184,2146 Z"/>
 <text class="TextShape"><tspan class="TextParagraph" font-family="Liberation Sans, sans-serif" font-size="353px" font-weight="400"><tspan class="TextPosition" x="2391" y="10524"/><tspan class="TextPosition" x="2391" y="10524"><tspan fill="rgb(0,0,0)" stroke="none">1</tspan></tspan></tspan></text>
 <text class="TextShape"><tspan class="TextParagraph" font-family="Liberation Sans, sans-serif" font-size="353px" font-weight="400"><tspan class="TextPosition" x="8386" y="10524"/><tspan class="TextPosition" x="8386" y="10524"><tspan fill="rgb(0,0,0)" stroke="none">10</tspan></tspan></tspan></text>
 <text class="TextShape"><tspan class="TextParagraph" font-family="Liberation Sans, sans-serif" font-size="353px" font-weight="400"><tspan class="TextPosition" x="14380" y="10524"/><tspan class="TextPosition" x="14380" y="10524"><tspan fill="rgb(0,0,0)" stroke="none">100</tspan></tspan></tspan></text>
 <text class="TextShape"><tspan class="TextParagraph" font-family="Liberation Sans, sans-serif" font-size="353px" font-weight="400"><tspan class="TextPosition" x="2049" y="10077"/><tspan class="TextPosition" x="2049" y="10077"><tspan fill="rgb(0,0,0)" stroke="none">1</tspan></tspan></tspan></text>
 <text class="TextShape"><tspan class="TextParagraph" font-family="Liberation Sans, sans-serif" font-size="353px" font-weight="400"><tspan class="TextPosition" x="1864" y="6740"/><tspan class="TextPosition" x="1864" y="6740"><tspan fill="rgb(0,0,0)" stroke="none">10</tspan></tspan></tspan></text>
 <text class="TextShape"><tspan class="TextParagraph" font-family="Liberation Sans, sans-serif" font-size="353px" font-weight="400"><tspan class="TextPosition" x="1678" y="3403"/><tspan class="TextPosition" x="1678" y="3403"><tspan fill="rgb(0,0,0)" stroke="none">100</tspan></tspan></tspan></text>
 <text class="TextShape"><tspan class="TextParagraph" font-family="Liberation Sans, sans-serif" font-size="529px" font-weight="400"><tspan class="TextPosition" x="2085" y="1039"/><tspan class="TextPosition" x="2085" y="1039"><tspan fill="rgb(0,0,0)" stroke="none">Speed-up of Onza FDTD (1024х1024, 1000 steps)</tspan></tspan></tspan><tspan class="TextParagraph" font-family="Liberation Sans, sans-serif" font-size="529px" font-weight="400"><tspan class="TextPosition" x="2628" y="1674"/><tspan class="TextPosition" x="2628" y="1674"><tspan fill="rgb(0,0,0)" stroke="none">Red line - ideal case, above red - cache effect</tspan></tspan></tspan></text>
 <text class="TextShape"><tspan class="TextParagraph" font-family="Liberation Sans, sans-serif" font-size="494px" font-weight="400"><tspan class="TextPosition" x="4800" y="11473"/><tspan class="TextPosition" x="4800" y="11473"><tspan fill="rgb(0,0,0)" stroke="none">Cores count (CPU count can vary)</tspan></tspan></tspan></text>
 <text class="TextShape" transform="translate(1075,7531) rotate(-90) translate(-1075,-7531)"><tspan class="TextParagraph" font-family="Liberation Sans, sans-serif" font-size="494px" font-weight="400"><tspan class="TextPosition" x="1075" y="7531"/><tspan class="TextPosition" x="1075" y="7531"><tspan fill="rgb(0,0,0)" stroke="none">Speed-up</tspan></tspan></tspan></text>
</svg>